<svg xmlns="http://www.w3.org/2000/svg" xmlns:xlink="http://www.w3.org/1999/xlink" contentStyleType="text/css" height="332px" preserveAspectRatio="none" style="width:515px;height:332px;background:#FFFFFF;" version="1.1" viewBox="0 0 515 332" width="515px" zoomAndPan="magnify"><defs/><g><line style="stroke:#181818;stroke-width:0.5;stroke-dasharray:5.0,5.0;" x1="32" x2="32" y1="39.0679" y2="294.01"/><line style="stroke:#181818;stroke-width:0.5;stroke-dasharray:5.0,5.0;" x1="118.26" x2="118.26" y1="39.0679" y2="294.01"/><line style="stroke:#181818;stroke-width:0.5;stroke-dasharray:5.0,5.0;" x1="264.8121" x2="264.8121" y1="39.0679" y2="294.01"/><line style="stroke:#181818;stroke-width:0.5;stroke-dasharray:5.0,5.0;" x1="355.2402" x2="355.2402" y1="39.0679" y2="294.01"/><rect fill="#E2E2F0" height="33.0679" rx="2.5" ry="2.5" style="stroke:#181818;stroke-width:0.5;" width="54.7538" x="5" y="5"/><text fill="#000000" font-family="sans-serif" font-size="14" lengthAdjust="spacing" textLength="40.7538" x="12" y="26.9659">Player</text><rect fill="#E2E2F0" height="33.0679" rx="2.5" ry="2.5" style="stroke:#181818;stroke-width:0.5;" width="54.7538" x="5" y="293.01"/><text fill="#000000" font-family="sans-serif" font-size="14" lengthAdjust="spacing" textLength="40.7538" x="12" y="314.976">Player</text><rect fill="#E2E2F0" height="33.0679" rx="2.5" ry="2.5" style="stroke:#181818;stroke-width:0.5;" width="34.9299" x="101.26" y="5"/><text fill="#000000" font-family="sans-serif" font-size="14" lengthAdjust="spacing" textLength="20.9299" x="108.26" y="26.9659">CLI</text><rect fill="#E2E2F0" height="33.0679" rx="2.5" ry="2.5" style="stroke:#181818;stroke-width:0.5;" width="34.9299" x="101.26" y="293.01"/><text fill="#000000" font-family="sans-serif" font-size="14" lengthAdjust="spacing" textLength="20.9299" x="108.26" y="314.976">CLI</text><rect fill="#E2E2F0" height="33.0679" rx="2.5" ry="2.5" style="stroke:#181818;stroke-width:0.5;" width="53.0318" x="238.8121" y="5"/><text fill="#000000" font-family="sans-serif" font-size="14" lengthAdjust="spacing" textLength="39.0318" x="245.8121" y="26.9659">Game</text><rect fill="#E2E2F0" height="33.0679" rx="2.5" ry="2.5" style="stroke:#181818;stroke-width:0.5;" width="53.0318" x="238.8121" y="293.01"/><text fill="#000000" font-family="sans-serif" font-size="14" lengthAdjust="spacing" textLength="39.0318" x="245.8121" y="314.976">Game</text><rect fill="#E2E2F0" height="33.0679" rx="2.5" ry="2.5" style="stroke:#181818;stroke-width:0.5;" width="53.8159" x="329.2402" y="5"/><text fill="#000000" font-family="sans-serif" font-size="14" lengthAdjust="spacing" textLength="39.8159" x="336.2402" y="26.9659">Board</text><rect fill="#E2E2F0" height="33.0679" rx="2.5" ry="2.5" style="stroke:#181818;stroke-width:0.5;" width="53.8159" x="329.2402" y="293.01"/><text fill="#000000" font-family="sans-serif" font-size="14" lengthAdjust="spacing" textLength="39.8159" x="336.2402" y="314.976">Board</text><polygon fill="#181818" points="106.725,68.7739,116.725,72.7739,106.725,76.7739,110.725,72.7739" style="stroke:#181818;stroke-width:1;"/><line style="stroke:#181818;stroke-width:1;" x1="32.3769" x2="112.725" y1="72.7739" y2="72.7739"/><text fill="#000000" font-family="sans-serif" font-size="13" lengthAdjust="spacing" textLength="37.609" x="39.3769" y="66.9649">"r 3 3"</text><polygon fill="#181818" points="253.3281,100.4799,263.3281,104.4799,253.3281,108.4799,257.3281,104.4799" style="stroke:#181818;stroke-width:1;"/><line style="stroke:#181818;stroke-width:1;" x1="118.725" x2="259.3281" y1="104.4799" y2="104.4799"/><text fill="#000000" font-family="sans-serif" font-size="13" lengthAdjust="spacing" textLength="122.6031" x="125.725" y="98.6709">reveal(row=3, col=3)</text><polygon fill="#181818" points="344.1481,132.186,354.1481,136.186,344.1481,140.186,348.1481,136.186" style="stroke:#181818;stroke-width:1;"/><line style="stroke:#181818;stroke-width:1;" x1="265.3281" x2="350.1481" y1="136.186" y2="136.186"/><text fill="#000000" font-family="sans-serif" font-size="13" lengthAdjust="spacing" textLength="66.8201" x="272.3281" y="130.377">reveal(3, 3)</text><polygon fill="#181818" points="276.3281,163.892,266.3281,167.892,276.3281,171.892,272.3281,167.892" style="stroke:#181818;stroke-width:1;"/><line style="stroke:#181818;stroke-width:1;stroke-dasharray:2.0,2.0;" x1="270.3281" x2="355.1481" y1="167.892" y2="167.892"/><text fill="#000000" font-family="sans-serif" font-size="13" lengthAdjust="spacing" textLength="18.2" x="282.3281" y="162.083">OK</text><line style="stroke:#181818;stroke-width:1;" x1="265.3281" x2="307.3281" y1="199.598" y2="199.598"/><line style="stroke:#181818;stroke-width:1;" x1="307.3281" x2="307.3281" y1="199.598" y2="212.598"/><line style="stroke:#181818;stroke-width:1;" x1="266.3281" x2="307.3281" y1="212.598" y2="212.598"/><polygon fill="#181818" points="276.3281,208.598,266.3281,212.598,276.3281,216.598,272.3281,212.598" style="stroke:#181818;stroke-width:1;"/><text fill="#000000" font-family="sans-serif" font-size="13" lengthAdjust="spacing" textLength="69.9661" x="272.3281" y="193.789">check_win()</text><path d="M353.9661,184.392 L353.9661,211.392 L508.9661,211.392 L508.9661,194.392 L498.9661,184.392 L353.9661,184.392 " fill="#FEFFDD" style="stroke:#181818;stroke-width:0.5;"/><path d="M498.9661,184.392 L498.9661,194.392 L508.9661,194.392 L498.9661,184.392 " fill="#FEFFDD" style="stroke:#181818;stroke-width:0.5;"/><text fill="#000000" font-family="sans-serif" font-size="13" lengthAdjust="spacing" textLength="134.2251" x="359.9661" y="203.289">all safe cells revealed?</text><polygon fill="#181818" points="129.725,240.304,119.725,244.304,129.725,248.304,125.725,244.304" style="stroke:#181818;stroke-width:1;"/><line style="stroke:#181818;stroke-width:1;stroke-dasharray:2.0,2.0;" x1="123.725" x2="264.3281" y1="244.304" y2="244.304"/><text fill="#000000" font-family="sans-serif" font-size="13" lengthAdjust="spacing" textLength="97.1231" x="135.725" y="238.495">game_over(win)</text><polygon fill="#181818" points="43.3769,272.01,33.3769,276.01,43.3769,280.01,39.3769,276.01" style="stroke:#181818;stroke-width:1;"/><line style="stroke:#181818;stroke-width:1;stroke-dasharray:2.0,2.0;" x1="37.3769" x2="117.725" y1="276.01" y2="276.01"/><text fill="#000000" font-family="sans-serif" font-size="13" lengthAdjust="spacing" textLength="62.3481" x="49.3769" y="270.201">"You win!"</text><!--SRC=[LOyz2y8m48Rt_8gpKmjsoYPKGGSH1LsTof6UDPWsvHeL_xrN6omTt-Vzu6xHCTODWiEFVmRe6mhOekgGWpMsmpR0HJpY6TgT3ZEznuPcOEkHAwN6AkJheG4hI1Wqw4GDIk1G4yhq8dGf-tUXbs2yAtIcVfvaVajJI09YZZ2V9ix7Vo4ISoVpAD-sJJFL-a30jhw75Q1pqEEDm91pVPobQXFx_rDhaQL_4QUoaOqNYna_abUk_WbYBP8l]--></g></svg>