<svg xmlns="http://www.w3.org/2000/svg" xmlns:xlink="http://www.w3.org/1999/xlink" contentStyleType="text/css" height="287px" preserveAspectRatio="none" style="width:440px;height:287px;background:#FFFFFF;" version="1.1" viewBox="0 0 440 287" width="440px" zoomAndPan="magnify"><defs/><g><line style="stroke:#181818;stroke-width:0.5;stroke-dasharray:5.0,5.0;" x1="32" x2="32" y1="39.0679" y2="249.304"/><line style="stroke:#181818;stroke-width:0.5;stroke-dasharray:5.0,5.0;" x1="152.567" x2="152.567" y1="39.0679" y2="249.304"/><line style="stroke:#181818;stroke-width:0.5;stroke-dasharray:5.0,5.0;" x1="284.9492" x2="284.9492" y1="39.0679" y2="249.304"/><line style="stroke:#181818;stroke-width:0.5;stroke-dasharray:5.0,5.0;" x1="406.2133" x2="406.2133" y1="39.0679" y2="249.304"/><rect fill="#E2E2F0" height="33.0679" rx="2.5" ry="2.5" style="stroke:#181818;stroke-width:0.5;" width="54.7538" x="5" y="5"/><text fill="#000000" font-family="sans-serif" font-size="14" lengthAdjust="spacing" textLength="40.7538" x="12" y="26.9659">Player</text><rect fill="#E2E2F0" height="33.0679" rx="2.5" ry="2.5" style="stroke:#181818;stroke-width:0.5;" width="54.7538" x="5" y="248.304"/><text fill="#000000" font-family="sans-serif" font-size="14" lengthAdjust="spacing" textLength="40.7538" x="12" y="270.27">Player</text><rect fill="#E2E2F0" height="33.0679" rx="2.5" ry="2.5" style="stroke:#181818;stroke-width:0.5;" width="34.9299" x="135.567" y="5"/><text fill="#000000" font-family="sans-serif" font-size="14" lengthAdjust="spacing" textLength="20.9299" x="142.567" y="26.9659">CLI</text><rect fill="#E2E2F0" height="33.0679" rx="2.5" ry="2.5" style="stroke:#181818;stroke-width:0.5;" width="34.9299" x="135.567" y="248.304"/><text fill="#000000" font-family="sans-serif" font-size="14" lengthAdjust="spacing" textLength="20.9299" x="142.567" y="270.27">CLI</text><rect fill="#E2E2F0" height="33.0679" rx="2.5" ry="2.5" style="stroke:#181818;stroke-width:0.5;" width="53.0318" x="258.9492" y="5"/><text fill="#000000" font-family="sans-serif" font-size="14" lengthAdjust="spacing" textLength="39.0318" x="265.9492" y="26.9659">Game</text><rect fill="#E2E2F0" height="33.0679" rx="2.5" ry="2.5" style="stroke:#181818;stroke-width:0.5;" width="53.0318" x="258.9492" y="248.304"/><text fill="#000000" font-family="sans-serif" font-size="14" lengthAdjust="spacing" textLength="39.0318" x="265.9492" y="270.27">Game</text><rect fill="#E2E2F0" height="33.0679" rx="2.5" ry="2.5" style="stroke:#181818;stroke-width:0.5;" width="53.8159" x="380.2133" y="5"/><text fill="#000000" font-family="sans-serif" font-size="14" lengthAdjust="spacing" textLength="39.8159" x="387.2133" y="26.9659">Board</text><rect fill="#E2E2F0" height="33.0679" rx="2.5" ry="2.5" style="stroke:#181818;stroke-width:0.5;" width="53.8159" x="380.2133" y="248.304"/><text fill="#000000" font-family="sans-serif" font-size="14" lengthAdjust="spacing" textLength="39.8159" x="387.2133" y="270.27">Board</text><polygon fill="#181818" points="141.032,68.7739,151.032,72.7739,141.032,76.7739,145.032,72.7739" style="stroke:#181818;stroke-width:1;"/><line style="stroke:#181818;stroke-width:1;" x1="32.3769" x2="147.032" y1="72.7739" y2="72.7739"/><text fill="#000000" font-family="sans-serif" font-size="13" lengthAdjust="spacing" textLength="36.712" x="39.3769" y="66.9649">"f 1 4"</text><polygon fill="#181818" points="273.4651,100.4799,283.4651,104.4799,273.4651,108.4799,277.4651,104.4799" style="stroke:#181818;stroke-width:1;"/><line style="stroke:#181818;stroke-width:1;" x1="153.032" x2="279.4651" y1="104.4799" y2="104.4799"/><text fill="#000000" font-family="sans-serif" font-size="13" lengthAdjust="spacing" textLength="108.4331" x="160.032" y="98.6709">flag(row=1, col=4)</text><polygon fill="#181818" points="395.1212,132.186,405.1212,136.186,395.1212,140.186,399.1212,136.186" style="stroke:#181818;stroke-width:1;"/><line style="stroke:#181818;stroke-width:1;" x1="285.4651" x2="401.1212" y1="136.186" y2="136.186"/><text fill="#000000" font-family="sans-serif" font-size="13" lengthAdjust="spacing" textLength="97.6561" x="292.4651" y="130.377">toggle_flag(1, 4)</text><polygon fill="#181818" points="296.4651,163.892,286.4651,167.892,296.4651,171.892,292.4651,167.892" style="stroke:#181818;stroke-width:1;"/><line style="stroke:#181818;stroke-width:1;stroke-dasharray:2.0,2.0;" x1="290.4651" x2="406.1212" y1="167.892" y2="167.892"/><text fill="#000000" font-family="sans-serif" font-size="13" lengthAdjust="spacing" textLength="18.2" x="302.4651" y="162.083">OK</text><polygon fill="#181818" points="164.032,195.598,154.032,199.598,164.032,203.598,160.032,199.598" style="stroke:#181818;stroke-width:1;"/><line style="stroke:#181818;stroke-width:1;stroke-dasharray:2.0,2.0;" x1="158.032" x2="284.4651" y1="199.598" y2="199.598"/><text fill="#000000" font-family="sans-serif" font-size="13" lengthAdjust="spacing" textLength="72.5271" x="170.032" y="193.789">board_state</text><polygon fill="#181818" points="43.3769,227.304,33.3769,231.304,43.3769,235.304,39.3769,231.304" style="stroke:#181818;stroke-width:1;"/><line style="stroke:#181818;stroke-width:1;stroke-dasharray:2.0,2.0;" x1="37.3769" x2="152.032" y1="231.304" y2="231.304"/><text fill="#000000" font-family="sans-serif" font-size="13" lengthAdjust="spacing" textLength="96.6551" x="49.3769" y="225.495">rendered board</text><!--SRC=[AqWiAibCpYn8p2jH2CX9h4mjuYf04dBsyKJXkoVcfg88EEKd5gLmSK6qAkZQWNGeM2aefIaOAfWeSO5uG46GDg1eMavYkaPHVhcjeOv2SdwEhOac5rW6g09i3b19INvwUavgF5WbK1LG1KH65s6AlpTK5zos992I-EAIn99KY8r06QYBh1IAKlDIKejIKo2g0000]--></g></svg>
